<mxfile host="embed.diagrams.net" agent="Mozilla/5.0 (X11; Linux x86_64; rv:139.0) Gecko/20100101 Firefox/139.0" version="27.1.4">
  <diagram name="ChatArchitecture" id="0">
    <mxGraphModel grid="1" page="1" gridSize="10" guides="1" tooltips="1" connect="1" arrows="1" fold="1" pageScale="1" pageWidth="827" pageHeight="1169" math="0" shadow="0">
      <root>
        <mxCell id="0" />
        <mxCell id="1" parent="0" />
        <mxCell id="6" style="edgeStyle=orthogonalEdgeStyle;rounded=0;" edge="1" parent="1">
          <mxGeometry relative="1" as="geometry">
            <mxPoint x="250" y="150" as="targetPoint" />
          </mxGeometry>
        </mxCell>
        <mxCell id="7" style="edgeStyle=orthogonalEdgeStyle;rounded=0;" edge="1" parent="1">
          <mxGeometry relative="1" as="geometry">
            <mxPoint x="250" y="150" as="targetPoint" />
          </mxGeometry>
        </mxCell>
        <mxCell id="8" style="edgeStyle=orthogonalEdgeStyle;rounded=0;" edge="1" parent="1">
          <mxGeometry relative="1" as="geometry">
            <mxPoint x="400" y="250" as="targetPoint" />
          </mxGeometry>
        </mxCell>
        <mxCell id="0j1zE9MKE9gNwk0XgvOt-10" value="Docker Container" style="rounded=1;fillColor=#DAE8FC;" vertex="1" parent="1">
          <mxGeometry x="40" y="436" width="560" height="350" as="geometry" />
        </mxCell>
        <mxCell id="0j1zE9MKE9gNwk0XgvOt-30" value="" style="rounded=1;fillColor=light-dark(#F8CECC,#510000);" vertex="1" parent="1">
          <mxGeometry x="60" y="260" width="160" height="400" as="geometry" />
        </mxCell>
        <mxCell id="0j1zE9MKE9gNwk0XgvOt-37" style="edgeStyle=orthogonalEdgeStyle;rounded=0;orthogonalLoop=1;jettySize=auto;html=1;exitX=0;exitY=0.5;exitDx=0;exitDy=0;endArrow=none;startFill=1;startArrow=classic;" edge="1" parent="1" source="0j1zE9MKE9gNwk0XgvOt-11">
          <mxGeometry relative="1" as="geometry">
            <mxPoint x="200" y="549.952380952381" as="targetPoint" />
          </mxGeometry>
        </mxCell>
        <mxCell id="0j1zE9MKE9gNwk0XgvOt-11" value="Ruby on Rails API" style="rounded=1;fillColor=#FFE6CC;" vertex="1" parent="1">
          <mxGeometry x="250" y="520" width="320" height="60" as="geometry" />
        </mxCell>
        <mxCell id="0j1zE9MKE9gNwk0XgvOt-33" value="&lt;font style=&quot;font-size: 18px;&quot;&gt;Proxy Network&lt;/font&gt;" style="rounded=1;fillColor=light-dark(#F8CECC,#009900);" vertex="1" parent="1">
          <mxGeometry x="230" y="600" width="360" height="170" as="geometry" />
        </mxCell>
        <mxCell id="0j1zE9MKE9gNwk0XgvOt-12" value="MySQL (user data)" style="rounded=1;fillColor=#CCCCFF;" vertex="1" parent="1">
          <mxGeometry x="250" y="636" width="320" height="60" as="geometry" />
        </mxCell>
        <mxCell id="0j1zE9MKE9gNwk0XgvOt-13" value="Redis (chat data)" style="rounded=1;fillColor=#E1D5E7;" vertex="1" parent="1">
          <mxGeometry x="250" y="703" width="320" height="60" as="geometry" />
        </mxCell>
        <mxCell id="0j1zE9MKE9gNwk0XgvOt-14" value="React Native&#xa;Mobile Clients" style="rounded=1;fillColor=#FFF2CC;" vertex="1" parent="1">
          <mxGeometry x="344" y="260" width="140" height="70" as="geometry" />
        </mxCell>
        <mxCell id="0j1zE9MKE9gNwk0XgvOt-18" value="Docker Container" style="text;html=1;align=center;verticalAlign=middle;whiteSpace=wrap;rounded=0;fontSize=24;" vertex="1" parent="1">
          <mxGeometry x="285" y="460" width="230" height="30" as="geometry" />
        </mxCell>
        <mxCell id="0j1zE9MKE9gNwk0XgvOt-20" value="&lt;h1 style=&quot;margin-top: 0px;&quot;&gt;Server Model&lt;/h1&gt;" style="text;html=1;whiteSpace=wrap;overflow=hidden;rounded=0;" vertex="1" parent="1">
          <mxGeometry x="322" y="160" width="156" height="40" as="geometry" />
        </mxCell>
        <mxCell id="0j1zE9MKE9gNwk0XgvOt-23" value="" style="edgeStyle=orthogonalEdgeStyle;rounded=0;orthogonalLoop=1;jettySize=auto;html=1;" edge="1" parent="1" source="0j1zE9MKE9gNwk0XgvOt-9" target="0j1zE9MKE9gNwk0XgvOt-8">
          <mxGeometry relative="1" as="geometry" />
        </mxCell>
        <mxCell id="0j1zE9MKE9gNwk0XgvOt-25" value="Dark Web" style="ellipse;shape=cloud;whiteSpace=wrap;html=1;" vertex="1" parent="1">
          <mxGeometry x="80" y="304" width="120" height="80" as="geometry" />
        </mxCell>
        <mxCell id="0j1zE9MKE9gNwk0XgvOt-8" value="Tor Proxy" style="rounded=1;fillColor=#F8CECC;" vertex="1" parent="1">
          <mxGeometry x="80" y="475" width="120" height="60" as="geometry" />
        </mxCell>
        <mxCell id="0j1zE9MKE9gNwk0XgvOt-9" value="I2P Proxy" style="rounded=1;fillColor=#D5E8D4;" vertex="1" parent="1">
          <mxGeometry x="80" y="563" width="120" height="64" as="geometry" />
        </mxCell>
        <mxCell id="0j1zE9MKE9gNwk0XgvOt-31" value="&lt;font style=&quot;font-size: 18px;&quot;&gt;Proxy Network&lt;/font&gt;" style="text;html=1;align=center;verticalAlign=middle;whiteSpace=wrap;rounded=0;fontSize=24;" vertex="1" parent="1">
          <mxGeometry x="80" y="273" width="120" height="20" as="geometry" />
        </mxCell>
        <mxCell id="0j1zE9MKE9gNwk0XgvOt-29" style="edgeStyle=orthogonalEdgeStyle;rounded=0;orthogonalLoop=1;jettySize=auto;html=1;endArrow=classic;startFill=1;endFill=1;startArrow=classic;" edge="1" parent="1">
          <mxGeometry relative="1" as="geometry">
            <mxPoint x="140" y="550" as="targetPoint" />
            <mxPoint x="140" y="380" as="sourcePoint" />
            <Array as="points">
              <mxPoint x="140" y="400" />
              <mxPoint x="210" y="400" />
              <mxPoint x="210" y="550" />
            </Array>
          </mxGeometry>
        </mxCell>
        <mxCell id="0j1zE9MKE9gNwk0XgvOt-24" value="" style="edgeStyle=orthogonalEdgeStyle;rounded=0;orthogonalLoop=1;jettySize=auto;html=1;startArrow=classic;startFill=1;" edge="1" parent="1" source="0j1zE9MKE9gNwk0XgvOt-9" target="0j1zE9MKE9gNwk0XgvOt-8">
          <mxGeometry relative="1" as="geometry" />
        </mxCell>
        <mxCell id="0j1zE9MKE9gNwk0XgvOt-35" value="&lt;font style=&quot;font-size: 18px;&quot;&gt;DB Network&lt;/font&gt;" style="text;html=1;align=center;verticalAlign=middle;whiteSpace=wrap;rounded=0;fontSize=24;" vertex="1" parent="1">
          <mxGeometry x="350" y="603" width="120" height="20" as="geometry" />
        </mxCell>
        <mxCell id="0j1zE9MKE9gNwk0XgvOt-38" style="edgeStyle=orthogonalEdgeStyle;rounded=0;orthogonalLoop=1;jettySize=auto;html=1;entryX=0.875;entryY=0.5;entryDx=0;entryDy=0;entryPerimeter=0;startArrow=classic;startFill=1;" edge="1" parent="1" source="0j1zE9MKE9gNwk0XgvOt-14" target="0j1zE9MKE9gNwk0XgvOt-25">
          <mxGeometry relative="1" as="geometry" />
        </mxCell>
        <mxCell id="0j1zE9MKE9gNwk0XgvOt-39" value="HTTP Clients" style="rounded=1;fillColor=#FFF2CC;" vertex="1" parent="1">
          <mxGeometry x="344" y="350" width="140" height="70" as="geometry" />
        </mxCell>
        <mxCell id="0j1zE9MKE9gNwk0XgvOt-40" style="edgeStyle=orthogonalEdgeStyle;rounded=0;orthogonalLoop=1;jettySize=auto;html=1;entryX=0.875;entryY=0.5;entryDx=0;entryDy=0;entryPerimeter=0;startArrow=classic;startFill=1;" edge="1" parent="1" source="0j1zE9MKE9gNwk0XgvOt-39" target="0j1zE9MKE9gNwk0XgvOt-25">
          <mxGeometry relative="1" as="geometry" />
        </mxCell>
      </root>
    </mxGraphModel>
  </diagram>
</mxfile>
